<svg width="1000" height="314" viewBox="0 0 1000 314" fill="none" xmlns="http://www.w3.org/2000/svg">
<path d="M342.306 103.91L339.134 122.593H364.679L349.923 209.564H367.582L382.338 122.593H407.884L411.056 103.91H342.306" fill="black"/>
<path d="M415.505 103.91L397.572 209.564H461.736L464.903 190.874H418.054L422.698 163.507H463.896L467.069 144.815H425.867L429.638 122.593H474.489L477.661 103.91H415.505" fill="black"/>
<path d="M487.965 103.91L470.04 209.564H529.72L532.974 190.434H490.942L505.629 103.91H487.965" fill="black"/>
<path d="M555.161 103.91L537.231 209.564H554.886L560.96 173.805L571 163.212L589.268 209.564H611.987L586.077 147.172L627.921 103.91H605.073L565.527 146.877L572.818 103.91H555.161" fill="black"/>
<path fill-rule="evenodd" clip-rule="evenodd" d="M666.813 119.795C681.418 119.795 687.446 134.214 683.644 156.591C679.527 180.876 668.053 193.671 654.392 193.671C639.911 193.671 633.883 179.253 637.708 156.738C641.875 132.167 653.74 119.795 666.813 119.795V119.795ZM670.098 101.112C651.506 101.112 627.236 114.348 620.045 156.738C613.006 198.229 631.803 212.362 651.229 212.362C669.944 212.362 694.059 199.266 701.3 156.591C708.476 114.348 688.465 101.112 670.098 101.112" fill="black"/>
<path d="M717.373 103.91L699.441 209.564H715.93L730.886 121.418H731.124L731.588 209.564H748.892L779.654 121.271L779.914 121.133L764.9 209.564H781.382L799.306 103.91H773.765L744.562 187.196H744.326L743.152 103.91H717.373" fill="black"/>
<path d="M839.976 101.112C812.543 101.112 803.962 121.858 801.94 133.781C798.042 156.738 810.429 161.45 823.534 164.672L832.269 167.339C840.767 169.981 846.637 172.183 845.211 180.573C843.238 192.203 832.318 194.119 825.371 194.119C815.601 194.119 808.578 189.7 810.259 177.044H793.305C789.488 199.568 800.856 212.362 823.103 212.362C839.934 212.362 858.34 203.09 862.637 177.786C866.128 157.178 854.239 152.317 844.753 149.226L825.794 143.046C822.434 142.026 817.295 140.403 818.748 131.865C820.346 122.446 828.877 119.355 835.587 119.355C851.008 119.355 850.519 130.543 850.193 135.249H867.147C869.227 122.307 865.867 101.112 839.976 101.112" fill="black"/>
<path d="M882.527 103.91L864.595 209.564H928.765L931.931 190.874H885.08L889.727 163.507H930.927L934.1 144.815H892.893L896.667 122.593H941.52L944.693 103.91H882.527" fill="black"/>
<path d="M954.997 103.91L937.06 209.564H996.753L1000 190.434H957.969L972.647 103.91H954.997" fill="black"/>
<path d="M69.3191 144.284L105.124 60.1666L196.056 49.0347L251.194 122.013L215.396 206.131L124.463 217.262L69.3191 144.284Z" fill="white"/>
<path d="M221.409 218.706C202.787 278.269 172.002 316.876 142.008 313.197C105.947 308.786 81.5023 234.738 94.3795 147.741C107.284 60.5821 145.511 -2.43979 183.938 0.0722533C209.082 1.7114 228.642 35.7019 234.196 81.5807C227.24 55.6242 216.744 28.7456 198.84 26.388C174.159 23.1416 141.82 72.929 128.512 141.609C116.153 205.405 125.972 268.965 154.835 272.724C173.483 275.147 205.323 255.665 221.409 218.706" fill="white"/>
<path d="M237.946 213.111C271.546 197.96 305.629 180.37 302.407 159.331C297.516 127.421 223.451 115.44 158.55 121.825C129.923 124.639 27.4803 145.28 29.0909 188.427C29.5602 200.986 63.1585 217.54 91.2766 225.663C47.5085 220.777 3.32077 199.035 0.222754 172.835C-4.45036 133.202 64.9568 92.4922 156.334 82.7726C247.024 73.1413 325.458 96.717 330.839 136.26C334.889 166.009 296.149 194.69 237.946 213.111" fill="white"/>
<path d="M235.7 214.237L147.896 224.994L94.6567 154.534L129.221 73.3114L217.035 62.5718L270.268 133.03L235.7 214.237" fill="#656263"/>
<path d="M221.409 218.706C202.787 278.27 172.002 316.883 142.008 313.197C105.947 308.786 81.5023 234.739 94.3795 147.751C107.284 60.5823 145.511 -2.43953 183.938 0.0725129C209.082 1.71166 228.642 35.7021 234.196 81.581C227.24 55.6244 216.744 28.7459 198.84 26.3883C174.159 23.1419 141.82 72.9292 128.512 141.609C116.153 205.414 125.972 268.966 154.835 272.725C173.483 275.147 205.323 255.665 221.409 218.706" fill="#B0AEAF"/>
<path d="M237.946 213.111C271.546 197.961 305.629 180.37 302.407 159.331C297.516 127.421 223.451 115.441 158.55 121.826C129.923 124.639 27.4803 145.28 29.0909 188.436C29.5602 200.986 63.1585 217.541 91.2766 225.663C47.5085 220.777 3.32077 199.036 0.222754 172.835C-4.45036 133.203 64.9568 92.4926 156.334 82.773C247.024 73.1416 325.458 96.7173 330.839 136.26C334.889 166.009 296.149 194.691 237.946 213.111" fill="#B0AEAF"/>
<path d="M213.609 203.766L125.62 214.532L72.2671 143.917L106.909 62.5401L194.897 51.7661L248.247 122.38L213.609 203.766" fill="#ED1C24"/>
<path d="M221.409 218.706C202.787 278.269 172.002 316.876 142.008 313.197C105.947 308.786 81.5023 234.738 94.3795 147.741C107.284 60.5821 145.511 -2.43979 183.938 0.0722533C209.082 1.7114 228.642 35.7019 234.196 81.5807C227.24 55.6242 216.744 28.7456 198.84 26.388C174.159 23.1416 141.82 72.929 128.512 141.609C116.153 205.405 125.972 268.965 154.835 272.724C173.483 275.147 205.323 255.665 221.409 218.706" fill="white"/>
<path d="M237.946 213.111C271.546 197.96 305.629 180.37 302.407 159.331C297.516 127.421 223.451 115.44 158.55 121.825C129.923 124.639 27.4803 145.28 29.0909 188.427C29.5602 200.986 63.1585 217.54 91.2766 225.663C47.5085 220.777 3.32077 199.035 0.222754 172.835C-4.45036 133.202 64.9568 92.4922 156.334 82.7726C247.024 73.1413 325.458 96.717 330.839 136.26C334.889 166.009 296.149 194.69 237.946 213.111" fill="white"/>
</svg>
