<svg width="1893" height="644" viewBox="0 0 1893 644" fill="none" xmlns="http://www.w3.org/2000/svg">
<path fill-rule="evenodd" clip-rule="evenodd" d="M34.5791 440.556L35.6178 482.107C35.9374 494.492 47.283 503.601 59.4277 501.204L89.3099 495.291L34.5791 440.556Z" fill="#EAD5AC"/>
<path fill-rule="evenodd" clip-rule="evenodd" d="M379.023 298.406C379.343 306.636 387.812 346.189 386.773 354.259L361.605 430.648C340.672 451.663 255.819 331.087 255.819 331.087V310.791V283.224C288.657 283.224 317.98 148.265 337.556 124.933C340.352 141.393 378.224 279.548 379.023 298.406Z" fill="#E7C080"/>
<path fill-rule="evenodd" clip-rule="evenodd" d="M188.544 573.28V635.126C113.998 606.121 90.588 512.553 90.1885 510.875L125.584 546.272C143.082 563.692 165.773 572.721 188.544 573.28Z" fill="#EAD5AC"/>
<path fill-rule="evenodd" clip-rule="evenodd" d="M285.782 635.526C268.044 640.959 251.825 643.436 236.963 643.596C218.826 643.836 202.767 640.64 188.625 635.126V573.28C212.914 573.839 200.929 360.893 200.929 360.893C200.929 328.212 255.82 310.793 255.82 310.793V327.173C255.82 329.491 257.418 331.408 259.655 331.808C259.735 331.808 259.735 331.808 259.735 331.808C274.196 334.205 323.734 340.757 341.551 322.859H341.631C338.036 349.866 367.119 393.015 395.163 353.542C395.643 355.699 438.948 588.941 285.782 635.526Z" fill="#FFADBF"/>
<path fill-rule="evenodd" clip-rule="evenodd" d="M256.139 546.272C256.139 546.272 307.594 495.133 310.71 437.123L257.097 513.911L256.139 546.272Z" fill="#F299AC"/>
<path fill-rule="evenodd" clip-rule="evenodd" d="M337.556 245.031C328.048 256.377 316.223 265.726 302.8 272.358C288.578 279.31 272.678 283.225 255.82 283.225C247.99 283.225 240.399 282.426 233.128 280.828C185.109 270.44 149.075 227.691 149.075 176.552V82.025C149.075 76.7513 149.634 71.4776 150.593 66.4436C154.987 73.3154 212.674 35.2807 235.446 54.6177C246.312 63.9665 235.446 54.6176 250.307 62.0488C260.933 67.2426 274.516 95.8485 287.06 98.805C287.22 98.805 355.693 110.391 355.773 110.391C400.597 120.859 329.407 197.168 337.556 245.031Z" fill="#F9DCA4"/>
<path fill-rule="evenodd" clip-rule="evenodd" d="M252.464 280.828C204.445 270.441 161.5 227.692 161.5 176.552V76.5C161.5 71.2263 163.541 75.034 164.5 70C167.536 74.7144 201.488 54.458 226.337 50.0632C200.13 43.4312 154.508 72.5165 150.593 66.4437C149.634 71.4777 149.075 76.7514 149.075 82.0252V176.552C149.075 227.692 185.109 270.441 233.128 280.828C240.399 282.426 247.99 283.225 255.82 283.225C259.096 283.225 262.371 283.066 265.647 282.746C261.173 282.346 256.779 281.707 252.464 280.828Z" fill="#E7C080"/>
<path fill-rule="evenodd" clip-rule="evenodd" d="M293.292 494.971C293.292 494.971 279.869 568.404 255.9 592.375C244.314 603.961 239.121 625.056 236.963 643.594C218.826 643.834 202.767 640.637 188.625 635.124V573.278C212.914 573.837 237.443 564.888 255.979 546.27C255.979 546.27 257.258 545.071 259.335 542.754C272.039 528.691 279.63 511.591 282.106 494.012L293.292 494.971Z" fill="#F299AC"/>
<path fill-rule="evenodd" clip-rule="evenodd" d="M256.139 415.948C256.219 416.107 256.299 416.187 256.299 416.267C256.219 416.187 256.06 416.028 255.98 415.948L200.929 360.893C200.929 328.212 255.82 310.793 255.82 310.793V331.089C255.82 331.089 257.258 331.408 259.735 331.808C249.508 349.866 240.879 378.792 256.139 415.948Z" fill="#F299AC"/>
<path fill-rule="evenodd" clip-rule="evenodd" d="M282.985 481.149C282.985 503.202 275.075 525.256 259.335 542.755C257.258 545.073 255.98 546.271 255.98 546.271C248.629 553.622 240.399 559.455 231.53 563.77C218.107 570.482 203.326 573.599 188.625 573.279C165.774 572.72 143.082 563.69 125.664 546.271L90.1891 510.873C90.1891 510.793 90.1891 510.793 90.1891 510.793L27.0689 447.749C-8.88561 411.791 -8.88561 353.381 27.0689 317.424C34.6593 309.913 43.1286 303.92 52.2371 299.525C73.5701 289.218 98.0991 287.699 120.471 294.811C95.3826 300.005 76.6063 322.218 76.6063 348.827C76.6063 379.27 101.295 403.961 131.737 403.961C162.258 403.961 186.947 379.27 186.947 348.827C186.947 348.107 186.867 347.468 186.867 346.829L200.929 360.892L255.98 415.947C273.957 433.925 282.985 457.497 282.985 481.149Z" fill="#4E8BC0"/>
<path fill-rule="evenodd" clip-rule="evenodd" d="M186.867 346.83C186.867 347.549 186.946 348.108 186.946 348.828C186.946 379.271 162.258 403.962 131.736 403.962C101.295 403.962 76.606 379.271 76.606 348.828C76.606 322.219 95.3822 300.006 120.471 294.812C133.973 299.127 146.677 306.718 157.464 317.425L186.867 346.83Z" fill="#EAD5AC"/>
<path fill-rule="evenodd" clip-rule="evenodd" d="M231.53 563.77C218.107 570.482 203.326 573.598 188.625 573.279C165.774 572.719 143.082 563.69 125.584 546.271L90.1891 510.873C90.1891 510.793 90.1891 510.793 90.1891 510.793L27.0689 447.748C-8.88561 411.791 -8.88561 353.381 27.0689 317.424C34.6593 309.913 43.1286 303.92 52.2371 299.525V299.685C52.2371 299.685 14.2052 371.04 87.5525 444.312C130.458 487.221 189.743 533.086 231.53 563.77Z" fill="#4181B3"/>
<path fill-rule="evenodd" clip-rule="evenodd" d="M112.241 359.373C108.007 359.373 104.491 356.017 104.251 351.862C104.012 347.227 107.927 343.232 112.561 343.472C116.955 343.711 120.391 347.467 120.151 351.862C119.912 356.017 116.396 359.373 112.241 359.373Z" fill="#4D4D4D"/>
<path fill-rule="evenodd" clip-rule="evenodd" d="M141.245 327.491C136.85 327.491 133.255 323.815 133.255 319.5C133.255 315.026 137.09 311.27 141.644 311.51C145.799 311.75 149.235 315.265 149.235 319.5C149.235 323.815 145.559 327.491 141.245 327.491Z" fill="#4D4D4D"/>
<path fill-rule="evenodd" clip-rule="evenodd" d="M243.595 206.596H212.674C209.318 206.596 206.602 203.879 206.602 200.523V93.4507L218.746 131.006V194.45H243.595V206.596Z" fill="#E7C080"/>
<path fill-rule="evenodd" clip-rule="evenodd" d="M183.272 174.556C178.797 174.556 175.122 170.88 175.122 166.486C175.122 162.091 178.797 158.415 183.112 158.335C187.427 158.255 191.102 161.771 191.342 166.006C191.581 170.641 187.826 174.556 183.272 174.556Z" fill="#4D4D4D"/>
<path fill-rule="evenodd" clip-rule="evenodd" d="M269.323 174.556C264.929 174.556 261.253 170.88 261.253 166.486C261.253 162.091 264.769 158.495 269.163 158.335C273.478 158.255 277.233 161.691 277.473 166.086C277.712 170.641 273.877 174.556 269.323 174.556Z" fill="#4D4D4D"/>
<path fill-rule="evenodd" clip-rule="evenodd" d="M203.007 231.048C210.198 232.167 215.551 233.045 220.664 233.445C225.778 233.924 230.332 234.164 234.886 234.164C239.52 234.084 244.075 233.924 249.108 233.445C254.302 233.045 259.655 232.167 266.846 231.048C265.647 238.239 261.013 244.072 255.261 248.227C249.348 252.303 242.157 254.46 234.886 254.38C227.695 254.38 220.425 252.303 214.592 248.147C208.839 244.072 204.205 238.239 203.007 231.048Z" fill="white"/>
<path fill-rule="evenodd" clip-rule="evenodd" d="M424.886 235.282C424.886 292.574 412.182 329.57 395.163 353.461C395.163 353.461 395.163 353.461 395.163 353.541C367.119 393.014 327.249 396.61 313.586 396.61C310.47 396.61 308.792 396.45 308.792 396.45C326.69 375.515 338.036 349.865 341.631 322.858C342.67 314.867 343.069 306.637 342.67 298.407C341.871 279.549 340.353 261.571 337.556 245.03C329.406 197.087 310.151 161.53 265.248 151.142C252.624 148.266 241.038 143.871 230.412 138.597C215.47 131.246 202.527 122.137 191.661 112.868C168.889 93.451 154.987 73.315 150.593 66.4432C157.863 28.7281 191.101 0.202148 230.971 0.202148H262.291C267.804 0.202148 273.078 0.361958 278.191 0.841386C278.271 0.841386 278.271 0.841386 278.351 0.841386C395.563 10.5099 424.886 126.931 424.886 235.282Z" fill="#4D4D4D"/>
<path fill-rule="evenodd" clip-rule="evenodd" d="M244.314 0.202148C244.314 0.202148 181.673 40.8737 191.581 112.708C191.661 112.708 191.661 112.788 191.661 112.868C168.889 93.451 154.987 73.315 150.593 66.4432C157.863 28.7281 191.101 0.202148 230.971 0.202148H244.314Z" fill="#333333"/>
<path fill-rule="evenodd" clip-rule="evenodd" d="M672.893 372.878C656.114 372.878 641.972 371.6 630.386 369.123C618.881 366.566 608.734 362.571 599.945 357.057C596.429 355.299 593.713 352.263 591.635 348.028C589.638 343.793 588.679 338.999 588.679 333.725C588.679 326.933 590.437 321.42 594.112 317.025C597.708 312.63 602.342 310.393 607.855 310.393C611.61 310.393 615.126 310.872 618.402 311.751C621.598 312.63 625.672 314.068 630.386 316.066C638.456 318.783 645.487 320.94 651.64 322.458C657.792 323.977 665.622 324.696 675.13 324.696C681.921 324.696 687.275 323.737 691.11 321.899C695.025 319.981 696.942 317.345 696.942 313.829C696.942 311.032 695.984 308.955 694.146 307.436C692.228 305.918 688.713 304.48 683.439 303.122C678.166 301.683 669.297 299.766 656.753 297.288C634.381 292.974 618.322 286.581 608.414 277.872C598.507 269.242 593.553 257.016 593.553 241.195C593.553 229.689 597.148 219.301 604.26 210.032C611.371 200.764 621.278 193.492 633.822 188.218C646.286 182.945 660.349 180.308 675.929 180.308C687.195 180.308 698.141 181.666 708.767 184.463C719.474 187.18 728.902 191.095 737.211 196.129C744.962 200.604 748.877 207.875 748.877 217.943C748.877 224.895 746.959 230.808 743.204 235.602C739.449 240.316 734.814 242.714 729.301 242.714C722.75 242.714 715 240.636 705.971 236.321C699.978 233.604 694.625 231.527 689.991 230.168C685.357 228.73 679.924 228.091 673.612 228.091C667.38 228.091 662.506 228.97 658.99 230.888C655.475 232.725 653.717 235.442 653.717 238.958C653.717 242.953 656.194 246.149 661.068 248.387C665.942 250.624 675.689 253.101 690.231 255.898C714.52 260.133 731.698 266.605 741.686 275.235C751.753 283.944 756.787 296.41 756.787 312.71C756.787 331.008 749.196 345.551 734.015 356.498C718.835 367.365 698.46 372.878 672.893 372.878ZM817.67 372.079C808.162 372.079 800.172 369.522 793.78 364.409C787.388 359.215 784.192 351.544 784.192 341.236V211.87C784.192 201.642 787.388 193.892 793.78 188.778C800.172 183.584 808.162 181.027 817.67 181.027C827.178 181.027 835.168 183.584 841.56 188.778C847.951 193.892 851.147 201.642 851.147 211.87V341.236C851.147 351.544 847.951 359.215 841.56 364.409C835.168 369.522 827.178 372.079 817.67 372.079ZM817.67 154.738C806.404 154.738 797.455 151.782 790.824 145.869C784.112 140.036 780.836 132.125 780.836 122.377C780.836 112.629 784.112 104.798 790.824 99.0448C797.455 93.2916 806.404 90.415 817.67 90.415C828.696 90.415 837.565 93.2916 844.356 99.0448C851.147 104.798 854.503 112.629 854.503 122.377C854.503 132.125 851.227 140.036 844.596 145.869C837.884 151.782 828.935 154.738 817.67 154.738ZM1126 180.308C1146.37 180.308 1162.03 186.381 1173.06 198.526C1184.09 210.672 1189.6 231.207 1189.6 260.053V341.236C1189.6 351.544 1186.4 359.215 1180.01 364.409C1173.62 369.522 1165.63 372.079 1156.12 372.079C1146.61 372.079 1138.62 369.522 1132.23 364.409C1125.84 359.215 1122.64 351.544 1122.64 341.236V258.535C1122.64 248.467 1120.89 241.515 1117.37 237.44C1113.86 233.445 1108.74 231.447 1101.95 231.447C1093.16 231.447 1086.21 234.563 1080.94 240.876C1075.66 247.108 1073.03 255.738 1073.03 266.765V341.236C1073.03 351.544 1069.91 359.215 1063.6 364.409C1057.37 369.522 1049.3 372.079 1039.55 372.079C1030.04 372.079 1022.05 369.522 1015.66 364.409C1009.27 359.215 1006.07 351.544 1006.07 341.236V258.535C1006.07 248.467 1004.31 241.515 1000.8 237.44C997.283 233.445 992.169 231.447 985.378 231.447C976.589 231.447 969.638 234.563 964.524 240.876C959.411 247.108 956.774 255.738 956.774 266.765V341.236C956.774 351.544 953.578 359.215 947.186 364.409C940.794 369.522 932.884 372.079 923.376 372.079C913.788 372.079 905.878 369.522 899.486 364.409C893.094 359.215 889.898 351.544 889.898 341.236V211.151C889.898 201.323 893.174 193.892 899.806 188.778C906.517 183.584 914.427 181.027 923.696 181.027C932.485 181.027 939.835 183.344 945.748 187.979C951.58 192.613 954.696 199.325 954.936 208.115C967.241 189.577 986.017 180.308 1011.34 180.308C1038.19 180.308 1056.09 191.175 1065.12 212.989C1071.35 203.001 1079.82 195.01 1090.29 189.097C1100.83 183.264 1112.74 180.308 1126 180.308ZM1349.8 180.308C1365.62 180.308 1379.68 184.383 1392.06 192.533C1404.53 200.684 1414.12 212.11 1421.07 226.972C1427.94 241.755 1431.37 258.615 1431.37 277.712C1431.37 296.729 1427.94 313.509 1421.07 327.892C1414.12 342.355 1404.53 353.382 1392.3 361.212C1380 368.963 1365.86 372.878 1349.8 372.878C1337.97 372.878 1327.19 370.481 1317.28 365.687C1307.37 360.973 1299.62 354.58 1294.11 346.51V410.434C1294.11 419.223 1291.15 426.255 1285.08 431.529C1279.09 436.802 1271.18 439.439 1261.43 439.439C1251.12 439.439 1242.89 436.562 1236.58 430.969C1230.35 425.296 1227.15 418.105 1227.15 409.315V211.87C1227.15 202.601 1230.11 195.17 1236.02 189.497C1241.93 183.904 1249.84 181.027 1259.91 181.027C1269.42 181.027 1277.17 183.584 1283 188.538C1288.91 193.572 1292.27 200.204 1292.99 208.514C1298.26 199.725 1306.01 192.853 1316.16 187.819C1326.31 182.785 1337.49 180.308 1349.8 180.308ZM1329.5 322.858C1341.01 322.858 1349.88 318.943 1355.95 311.192C1362.1 303.441 1365.22 292.255 1365.22 277.712C1365.22 262.45 1362.1 250.704 1355.79 242.554C1349.56 234.403 1340.61 230.328 1329.1 230.328C1317.6 230.328 1308.65 234.324 1302.42 242.314C1296.1 250.384 1292.99 261.891 1292.99 276.913C1292.99 291.775 1296.1 303.122 1302.42 310.952C1308.65 318.863 1317.68 322.858 1329.5 322.858ZM1548.35 180.308C1576.95 180.308 1598.04 187.1 1611.71 200.764C1625.37 214.427 1632.16 235.202 1632.16 263.009V341.636C1632.16 351.144 1629.36 358.655 1623.77 364.009C1618.1 369.443 1610.27 372.079 1600.2 372.079C1591.49 372.079 1584.22 369.602 1578.63 364.568C1572.95 359.534 1569.92 352.822 1569.36 344.273C1565.92 353.302 1560.01 360.333 1551.7 365.367C1543.47 370.321 1533.56 372.878 1521.98 372.878C1509.2 372.878 1497.69 370.242 1487.38 365.128C1477.16 360.014 1469.09 352.822 1463.17 343.713C1457.26 334.524 1454.3 324.216 1454.3 312.71C1454.3 299.366 1457.74 288.819 1464.69 280.908C1471.56 272.997 1482.51 267.324 1497.61 263.808C1512.63 260.293 1532.93 258.535 1558.49 258.535H1568.64V253.98C1568.64 245.27 1566.64 238.878 1562.65 235.043C1558.65 231.127 1551.86 229.21 1542.35 229.21C1532.05 229.21 1517.03 232.725 1497.21 239.757C1491.46 241.755 1486.5 242.714 1482.51 242.714C1476.28 242.714 1471.24 240.476 1467.49 235.922C1463.73 231.447 1461.82 225.534 1461.82 218.263C1461.82 212.749 1463.01 208.275 1465.25 204.759C1467.49 201.243 1471.08 198.127 1476.12 195.33C1484.91 190.855 1495.93 187.18 1509.2 184.463C1522.54 181.666 1535.56 180.308 1548.35 180.308ZM1537.8 328.132C1546.83 328.132 1554.26 324.936 1560.01 318.543C1565.76 312.151 1568.64 303.921 1568.64 293.853V289.378H1562.65C1546.59 289.378 1535.16 290.816 1528.37 293.693C1521.66 296.569 1518.22 301.364 1518.22 308.156C1518.22 313.909 1520.06 318.703 1523.74 322.458C1527.33 326.214 1532.05 328.132 1537.8 328.132ZM1779.25 324.296C1796.03 325.335 1804.42 332.846 1804.42 346.909C1804.42 355.699 1801.07 362.171 1794.28 366.486C1787.48 370.721 1777.82 372.479 1765.35 371.76L1754.8 370.961C1732.19 369.203 1715.1 362.411 1703.43 350.505C1691.76 338.599 1685.93 321.979 1685.93 300.645V234.084H1675.07C1655.01 234.084 1644.94 225.774 1644.94 209.233C1644.94 192.933 1655.01 184.783 1675.07 184.783H1685.93V160.332C1685.93 150.823 1688.97 143.232 1694.96 137.639C1701.03 131.966 1709.18 129.169 1719.41 129.169C1729.72 129.169 1737.87 131.966 1743.86 137.639C1749.93 143.232 1752.89 150.823 1752.89 160.332V184.783H1773.58C1793.64 184.783 1803.7 192.933 1803.7 209.233C1803.7 225.774 1793.64 234.084 1773.58 234.084H1752.89V306.318C1752.89 311.032 1754.33 315.027 1757.2 318.303C1760.08 321.58 1763.83 323.337 1768.31 323.577L1779.25 324.296ZM1855.56 372.079C1846.05 372.079 1838.06 369.522 1831.67 364.409C1825.28 359.215 1822.08 351.544 1822.08 341.236V211.87C1822.08 201.642 1825.28 193.892 1831.67 188.778C1838.06 183.584 1846.05 181.027 1855.56 181.027C1865.07 181.027 1873.06 183.584 1879.45 188.778C1885.84 193.892 1889.04 201.642 1889.04 211.87V341.236C1889.04 351.544 1885.84 359.215 1879.45 364.409C1873.06 369.522 1865.07 372.079 1855.56 372.079ZM1855.56 154.738C1844.29 154.738 1835.34 151.782 1828.71 145.869C1822 140.036 1818.72 132.125 1818.72 122.377C1818.72 112.629 1822 104.798 1828.71 99.0448C1835.34 93.2916 1844.29 90.415 1855.56 90.415C1866.58 90.415 1875.53 93.2916 1882.24 99.0448C1889.04 104.798 1892.39 112.629 1892.39 122.377C1892.39 132.125 1889.12 140.036 1882.48 145.869C1875.77 151.782 1866.82 154.738 1855.56 154.738Z" fill="#E3292C"/>
<path fill-rule="evenodd" clip-rule="evenodd" d="M604.339 529.093C598.986 529.093 594.672 527.974 591.236 525.817C590.277 525.257 589.638 524.618 589.238 523.979C588.839 523.42 588.679 522.701 588.679 521.901C588.679 521.023 588.919 520.383 589.398 519.744C589.798 519.185 590.437 518.945 591.156 518.945C591.875 518.945 592.914 519.345 594.352 520.144C595.95 521.023 597.468 521.662 598.986 522.221C600.424 522.701 602.342 523.02 604.579 523.02C607.056 523.02 608.974 522.541 610.412 521.662C611.85 520.783 612.569 519.504 612.569 517.906C612.569 516.867 612.249 515.989 611.69 515.429C611.131 514.79 610.172 514.231 608.814 513.751C607.535 513.192 605.458 512.712 602.821 512.153C598.267 511.114 594.911 509.756 592.914 508.078C590.916 506.4 589.878 504.083 589.878 501.126C589.878 498.889 590.597 496.891 591.875 495.054C593.154 493.296 594.991 491.857 597.308 490.898C599.545 489.94 602.182 489.38 605.058 489.38C607.216 489.38 609.213 489.7 611.211 490.259C613.208 490.819 614.966 491.618 616.404 492.656C618.162 493.775 619.041 495.133 619.041 496.652C619.041 497.451 618.801 498.17 618.322 498.729C617.762 499.288 617.203 499.608 616.484 499.608C616.085 499.608 615.605 499.448 615.126 499.288C614.646 499.049 614.007 498.729 613.208 498.25C611.85 497.451 610.492 496.811 609.293 496.332C608.095 495.853 606.497 495.613 604.739 495.613C602.502 495.613 600.744 496.092 599.386 496.971C598.107 497.93 597.388 499.209 597.388 500.807C597.388 502.325 598.027 503.444 599.226 504.243C600.504 505.042 602.821 505.841 606.177 506.56C609.693 507.279 612.409 508.158 614.407 509.037C616.404 509.996 617.842 511.194 618.641 512.553C619.52 513.911 620 515.669 620 517.826C620 521.182 618.561 523.979 615.685 525.977C612.889 528.054 609.053 529.093 604.339 529.093ZM632.704 528.933C631.585 528.933 630.626 528.613 629.827 527.974C629.108 527.415 628.709 526.456 628.709 525.178V493.376C628.709 492.177 629.108 491.218 629.827 490.579C630.626 489.94 631.585 489.54 632.704 489.54C633.902 489.54 634.781 489.94 635.5 490.579C636.299 491.218 636.619 492.177 636.619 493.376V525.178C636.619 526.456 636.299 527.415 635.5 527.974C634.781 528.613 633.902 528.933 632.704 528.933ZM632.704 481.869C631.185 481.869 629.987 481.47 629.108 480.671C628.229 479.792 627.83 478.753 627.83 477.395C627.83 476.036 628.229 474.918 629.108 474.118C629.987 473.319 631.185 472.92 632.704 472.92C634.222 472.92 635.34 473.319 636.299 474.118C637.178 474.918 637.657 476.036 637.657 477.395C637.657 478.753 637.178 479.792 636.299 480.671C635.42 481.47 634.222 481.869 632.704 481.869ZM660.988 529.093C655.635 529.093 651.32 527.974 647.884 525.817C647.005 525.257 646.286 524.618 645.887 523.979C645.487 523.42 645.328 522.701 645.328 521.901C645.328 521.023 645.567 520.383 646.047 519.744C646.526 519.185 647.085 518.945 647.804 518.945C648.524 518.945 649.562 519.345 651 520.144C652.598 521.023 654.116 521.662 655.635 522.221C657.073 522.701 658.99 523.02 661.227 523.02C663.704 523.02 665.702 522.541 667.06 521.662C668.498 520.783 669.217 519.504 669.217 517.906C669.217 516.867 668.898 515.989 668.338 515.429C667.859 514.79 666.9 514.231 665.542 513.751C664.184 513.192 662.186 512.712 659.47 512.153C654.915 511.114 651.56 509.756 649.562 508.078C647.565 506.4 646.606 504.083 646.606 501.126C646.606 498.889 647.245 496.891 648.524 495.054C649.802 493.296 651.64 491.857 653.957 490.898C656.194 489.94 658.831 489.38 661.787 489.38C663.864 489.38 665.862 489.7 667.859 490.259C669.857 490.819 671.614 491.618 673.132 492.656C674.81 493.775 675.689 495.133 675.689 496.652C675.689 497.451 675.45 498.17 674.97 498.729C674.411 499.288 673.852 499.608 673.212 499.608C672.733 499.608 672.254 499.448 671.774 499.288C671.295 499.049 670.656 498.729 669.857 498.25C668.498 497.451 667.14 496.811 665.942 496.332C664.743 495.853 663.225 495.613 661.387 495.613C659.15 495.613 657.392 496.092 656.114 496.971C654.756 497.93 654.116 499.209 654.116 500.807C654.116 502.325 654.676 503.444 655.954 504.243C657.153 505.042 659.47 505.841 662.825 506.56C666.341 507.279 669.058 508.158 671.055 509.037C673.053 509.996 674.491 511.194 675.37 512.553C676.169 513.911 676.648 515.669 676.648 517.826C676.648 521.182 675.21 523.979 672.333 525.977C669.537 528.054 665.702 529.093 660.988 529.093ZM703.734 522.94C704.852 523.02 705.651 523.34 706.131 523.819C706.69 524.299 706.93 525.018 706.93 525.897C706.93 526.935 706.53 527.735 705.731 528.294C704.852 528.853 703.734 529.013 702.136 528.933L700.058 528.773C695.824 528.454 692.628 527.175 690.55 524.938C688.473 522.621 687.434 519.265 687.434 514.87V496.492H682.72C680.403 496.492 679.285 495.453 679.285 493.376C679.285 492.497 679.604 491.698 680.164 491.138C680.803 490.659 681.602 490.339 682.72 490.339H687.434V482.269C687.434 481.07 687.754 480.191 688.473 479.472C689.192 478.833 690.151 478.433 691.349 478.433C692.548 478.433 693.507 478.833 694.226 479.472C694.945 480.191 695.344 481.07 695.344 482.269V490.339H703.095C704.133 490.339 705.012 490.659 705.651 491.138C706.211 491.698 706.53 492.497 706.53 493.376C706.53 494.414 706.211 495.133 705.651 495.693C705.012 496.172 704.133 496.492 703.095 496.492H695.344V515.429C695.344 517.826 695.824 519.664 696.862 520.783C697.901 521.981 699.419 522.621 701.497 522.78L703.734 522.94ZM742.485 518.945C743.284 518.945 743.843 519.185 744.322 519.744C744.802 520.383 745.042 521.102 745.042 521.981C745.042 523.5 744.083 524.778 742.245 525.817C740.407 526.856 738.41 527.655 736.253 528.214C734.015 528.773 732.018 529.093 730.021 529.093C723.948 529.093 719.154 527.335 715.639 523.819C712.203 520.303 710.445 515.509 710.445 509.356C710.445 505.441 711.164 502.005 712.762 498.969C714.28 495.932 716.438 493.615 719.234 491.937C722.031 490.259 725.227 489.38 728.742 489.38C733.856 489.38 737.931 491.058 740.887 494.334C743.843 497.61 745.361 502.085 745.361 507.678C745.361 509.756 744.402 510.795 742.485 510.795H718.355C718.835 518.865 722.75 522.94 730.021 522.94C731.938 522.94 733.616 522.621 734.974 522.141C736.412 521.582 737.931 520.943 739.449 520.064C739.608 519.984 740.088 519.744 740.727 519.424C741.446 519.105 742.085 518.945 742.485 518.945ZM728.902 495.213C725.866 495.213 723.469 496.172 721.631 498.09C719.793 500.008 718.675 502.724 718.355 506.24H738.49C738.41 502.724 737.451 500.008 735.853 498.09C734.175 496.172 731.858 495.213 728.902 495.213ZM797.855 489.38C806.404 489.38 810.718 494.574 810.718 504.802V525.178C810.718 526.376 810.319 527.335 809.6 527.974C808.881 528.613 807.922 528.933 806.724 528.933C805.525 528.933 804.646 528.613 803.847 527.974C803.128 527.335 802.808 526.376 802.808 525.178V504.882C802.808 501.766 802.169 499.448 801.051 498.01C799.932 496.572 798.094 495.853 795.697 495.853C792.821 495.853 790.504 496.811 788.826 498.809C787.148 500.727 786.349 503.364 786.349 506.799V525.178C786.349 526.376 785.95 527.335 785.231 527.974C784.512 528.613 783.553 528.933 782.354 528.933C781.236 528.933 780.277 528.613 779.558 527.974C778.839 527.335 778.439 526.376 778.439 525.178V504.882C778.439 501.766 777.88 499.448 776.682 498.01C775.563 496.572 773.805 495.853 771.328 495.853C768.452 495.853 766.135 496.811 764.457 498.809C762.779 500.727 761.9 503.364 761.9 506.799V525.178C761.9 526.376 761.581 527.335 760.862 527.974C760.142 528.613 759.184 528.933 757.985 528.933C756.867 528.933 755.908 528.613 755.189 527.974C754.39 527.335 753.99 526.376 753.99 525.178V493.296C753.99 492.177 754.39 491.298 755.189 490.579C755.988 489.94 756.946 489.54 757.985 489.54C759.104 489.54 759.983 489.94 760.702 490.579C761.421 491.218 761.74 492.097 761.74 493.216V496.172C762.939 493.935 764.537 492.257 766.534 491.138C768.612 490.02 770.929 489.38 773.565 489.38C776.522 489.38 778.919 490.02 780.836 491.218C782.754 492.417 784.192 494.254 785.071 496.811C786.269 494.494 787.947 492.736 790.184 491.378C792.422 490.099 794.978 489.38 797.855 489.38ZM862.653 489.38C865.929 489.38 868.885 490.259 871.442 491.937C874.078 493.615 876.076 495.932 877.514 498.969C878.952 502.005 879.671 505.521 879.671 509.436C879.671 513.352 878.952 516.788 877.514 519.744C876.076 522.78 874.078 525.018 871.522 526.696C868.965 528.294 866.009 529.093 862.653 529.093C859.776 529.093 857.22 528.454 855.062 527.255C852.905 526.057 851.227 524.299 850.029 521.981V539.401C850.029 540.519 849.709 541.398 848.99 542.037C848.271 542.677 847.392 542.996 846.194 542.996C844.995 542.996 844.036 542.677 843.317 542.037C842.518 541.318 842.119 540.439 842.119 539.241V493.376C842.119 492.257 842.518 491.298 843.237 490.659C843.956 489.94 844.915 489.54 846.114 489.54C847.312 489.54 848.191 489.94 848.99 490.659C849.709 491.298 850.029 492.257 850.029 493.376V496.652C851.227 494.334 852.905 492.576 855.062 491.298C857.22 490.02 859.776 489.38 862.653 489.38ZM860.735 522.86C864.251 522.86 866.887 521.662 868.725 519.345C870.643 517.027 871.602 513.751 871.602 509.436C871.602 505.122 870.643 501.766 868.725 499.368C866.808 496.971 864.171 495.773 860.735 495.773C857.3 495.773 854.663 496.891 852.825 499.288C850.988 501.606 850.029 504.962 850.029 509.277C850.029 513.591 850.988 516.947 852.825 519.345C854.663 521.662 857.3 522.86 860.735 522.86ZM918.263 518.945C919.062 518.945 919.621 519.185 920.1 519.744C920.58 520.383 920.819 521.102 920.819 521.981C920.819 523.5 919.861 524.778 917.943 525.817C916.185 526.856 914.188 527.655 912.03 528.214C909.793 528.773 907.796 529.093 905.798 529.093C899.726 529.093 894.932 527.335 891.416 523.819C887.981 520.303 886.223 515.509 886.223 509.356C886.223 505.441 886.942 502.005 888.54 498.969C890.058 495.932 892.215 493.615 895.012 491.937C897.808 490.259 901.004 489.38 904.52 489.38C909.633 489.38 913.708 491.058 916.665 494.334C919.621 497.61 921.139 502.085 921.139 507.678C921.139 509.756 920.18 510.795 918.263 510.795H894.133C894.612 518.865 898.527 522.94 905.798 522.94C907.716 522.94 909.394 522.621 910.752 522.141C912.19 521.582 913.708 520.943 915.226 520.064C915.386 519.984 915.866 519.744 916.505 519.424C917.224 519.105 917.863 518.945 918.263 518.945ZM904.68 495.213C901.644 495.213 899.247 496.172 897.409 498.09C895.571 500.008 894.453 502.724 894.133 506.24H914.268C914.108 502.724 913.229 500.008 911.631 498.09C909.953 496.172 907.636 495.213 904.68 495.213ZM950.382 489.38C959.49 489.38 964.045 494.574 964.045 504.802V525.178C964.045 526.376 963.725 527.335 963.006 527.974C962.287 528.613 961.328 528.933 960.05 528.933C958.851 528.933 957.972 528.613 957.253 527.894C956.534 527.255 956.135 526.296 956.135 525.178V505.201C956.135 502.005 955.495 499.608 954.217 498.09C952.939 496.572 951.021 495.853 948.305 495.853C945.109 495.853 942.552 496.811 940.634 498.809C938.637 500.807 937.678 503.444 937.678 506.799V525.178C937.678 526.296 937.358 527.255 936.639 527.894C935.92 528.613 934.961 528.933 933.763 528.933C932.564 528.933 931.606 528.613 930.887 527.894C930.167 527.255 929.768 526.296 929.768 525.178V493.296C929.768 492.257 930.167 491.298 930.966 490.659C931.686 489.94 932.644 489.54 933.763 489.54C934.961 489.54 935.84 489.94 936.559 490.579C937.199 491.298 937.518 492.177 937.518 493.216V496.492C938.797 494.175 940.554 492.417 942.792 491.218C945.029 490.02 947.585 489.38 950.382 489.38ZM991.21 529.093C987.535 529.093 984.259 528.294 981.463 526.696C978.666 525.018 976.509 522.78 974.991 519.744C973.473 516.788 972.674 513.352 972.674 509.436C972.674 505.521 973.473 502.005 975.071 498.969C976.669 495.932 978.906 493.615 981.782 491.937C984.659 490.259 987.934 489.38 991.61 489.38C993.607 489.38 995.605 489.7 997.602 490.259C999.6 490.819 1001.44 491.618 1002.96 492.656C1004.63 493.775 1005.51 495.133 1005.51 496.652C1005.51 497.531 1005.27 498.25 1004.79 498.809C1004.31 499.448 1003.67 499.768 1002.96 499.768C1002.48 499.768 1002 499.608 1001.6 499.368C1001.12 499.129 1000.48 498.809 999.76 498.33C998.481 497.531 997.283 496.891 996.164 496.412C994.966 496.012 993.687 495.773 992.089 495.773C988.574 495.773 985.777 496.971 983.86 499.368C981.862 501.766 980.903 505.122 980.903 509.356C980.903 513.671 981.862 516.947 983.78 519.265C985.697 521.582 988.494 522.78 992.009 522.78C993.607 522.78 994.966 522.541 996.164 522.061C997.363 521.582 998.561 520.943 999.839 520.144C1000.4 519.824 1000.96 519.504 1001.6 519.265C1002.16 518.945 1002.64 518.865 1003.12 518.865C1003.83 518.865 1004.47 519.105 1004.95 519.744C1005.43 520.383 1005.67 521.102 1005.67 521.981C1005.67 522.701 1005.43 523.34 1005.03 523.979C1004.63 524.538 1003.99 525.178 1003.04 525.817C1001.52 526.856 999.68 527.655 997.602 528.214C995.525 528.773 993.368 529.093 991.21 529.093ZM1042.59 518.945C1043.3 518.945 1043.86 519.185 1044.34 519.744C1044.82 520.383 1045.06 521.102 1045.06 521.981C1045.06 523.5 1044.1 524.778 1042.27 525.817C1040.43 526.856 1038.43 527.655 1036.27 528.214C1034.12 528.773 1032.04 529.093 1030.04 529.093C1023.97 529.093 1019.25 527.335 1015.74 523.819C1012.22 520.303 1010.47 515.509 1010.47 509.356C1010.47 505.441 1011.26 502.005 1012.78 498.969C1014.3 495.932 1016.54 493.615 1019.25 491.937C1022.05 490.259 1025.25 489.38 1028.76 489.38C1033.88 489.38 1037.95 491.058 1040.91 494.334C1043.86 497.61 1045.38 502.085 1045.38 507.678C1045.38 509.756 1044.42 510.795 1042.59 510.795H1018.38C1018.94 518.865 1022.77 522.94 1030.04 522.94C1031.96 522.94 1033.64 522.621 1035.07 522.141C1036.43 521.582 1037.95 520.943 1039.55 520.064C1039.71 519.984 1040.11 519.744 1040.83 519.424C1041.55 519.105 1042.11 518.945 1042.59 518.945ZM1028.92 495.213C1025.97 495.213 1023.49 496.172 1021.65 498.09C1019.81 500.008 1018.78 502.724 1018.38 506.24H1038.59C1038.43 502.724 1037.55 500.008 1035.87 498.09C1034.28 496.172 1031.96 495.213 1028.92 495.213ZM1085.73 489.54C1086.93 489.54 1087.81 489.94 1088.53 490.659C1089.25 491.298 1089.65 492.257 1089.65 493.376V525.497C1089.65 531.33 1088.05 535.725 1084.93 538.761C1081.82 541.718 1077.26 543.156 1071.19 543.156C1065.6 543.156 1060.88 542.117 1057.13 539.96C1055.21 538.841 1054.25 537.563 1054.25 536.045C1054.25 535.166 1054.49 534.447 1054.97 533.887C1055.45 533.328 1056.09 533.008 1056.81 533.008C1057.53 533.008 1058.57 533.408 1060 534.207C1061.92 535.086 1063.68 535.725 1065.28 536.284C1066.87 536.764 1068.79 537.003 1071.03 537.003C1078.3 537.003 1081.9 533.408 1081.9 526.136V520.064C1080.78 522.381 1079.1 524.219 1076.86 525.497C1074.62 526.776 1071.99 527.415 1069.03 527.415C1065.68 527.415 1062.72 526.616 1060.08 525.018C1057.53 523.5 1055.45 521.262 1054.01 518.386C1052.57 515.509 1051.85 512.153 1051.85 508.398C1051.85 504.642 1052.65 501.366 1054.09 498.489C1055.53 495.613 1057.53 493.376 1060.16 491.777C1062.72 490.179 1065.68 489.38 1069.03 489.38C1071.91 489.38 1074.54 490.02 1076.7 491.298C1078.94 492.576 1080.62 494.334 1081.82 496.652V493.296C1081.82 492.177 1082.14 491.298 1082.85 490.579C1083.57 489.94 1084.53 489.54 1085.73 489.54ZM1070.87 521.102C1074.31 521.102 1076.94 519.984 1078.86 517.746C1080.78 515.509 1081.82 512.393 1081.82 508.398C1081.82 504.482 1080.86 501.446 1078.94 499.129C1077.02 496.891 1074.39 495.773 1070.87 495.773C1067.43 495.773 1064.8 496.891 1062.8 499.129C1060.88 501.366 1059.84 504.482 1059.84 508.398C1059.84 512.393 1060.88 515.509 1062.88 517.746C1064.8 519.984 1067.51 521.102 1070.87 521.102ZM1116.65 489.38C1121.77 489.38 1125.52 490.659 1128 493.216C1130.47 495.773 1131.67 499.688 1131.67 504.882V525.178C1131.67 526.376 1131.35 527.335 1130.71 527.974C1129.99 528.613 1129.12 528.933 1127.92 528.933C1126.72 528.933 1125.84 528.613 1125.12 527.894C1124.48 527.255 1124.08 526.296 1124.08 525.178V522.301C1123.12 524.458 1121.69 526.136 1119.69 527.335C1117.77 528.534 1115.45 529.093 1112.82 529.093C1110.34 529.093 1108.02 528.613 1105.95 527.575C1103.87 526.536 1102.27 525.098 1101.07 523.34C1099.87 521.502 1099.31 519.424 1099.31 517.187C1099.31 514.47 1100.03 512.233 1101.47 510.635C1102.91 509.037 1105.31 507.918 1108.58 507.279C1111.94 506.56 1116.41 506.24 1122.24 506.24H1124.08V504.003C1124.08 501.046 1123.44 498.969 1122.24 497.61C1121.05 496.332 1119.13 495.693 1116.41 495.693C1114.65 495.693 1112.9 495.932 1111.3 496.412C1109.7 496.891 1107.86 497.531 1105.95 498.41C1104.59 499.209 1103.55 499.608 1102.99 499.608C1102.19 499.608 1101.55 499.288 1101.07 498.729C1100.59 498.17 1100.35 497.451 1100.35 496.572C1100.35 495.773 1100.59 495.054 1100.99 494.494C1101.47 493.855 1102.19 493.296 1103.15 492.736C1104.99 491.698 1107.14 490.898 1109.54 490.339C1112.02 489.7 1114.41 489.38 1116.65 489.38ZM1114.25 523.26C1117.13 523.26 1119.45 522.221 1121.29 520.303C1123.12 518.306 1124.08 515.829 1124.08 512.712V510.715H1122.64C1118.57 510.715 1115.45 510.875 1113.22 511.274C1111.06 511.594 1109.46 512.233 1108.58 513.112C1107.62 513.991 1107.14 515.189 1107.14 516.788C1107.14 518.705 1107.78 520.223 1109.14 521.422C1110.5 522.621 1112.26 523.26 1114.25 523.26ZM1163.15 489.38C1172.26 489.38 1176.82 494.574 1176.82 504.802V525.178C1176.82 526.296 1176.42 527.255 1175.7 527.894C1174.98 528.613 1174.02 528.933 1172.82 528.933C1171.62 528.933 1170.66 528.613 1169.94 527.894C1169.23 527.255 1168.91 526.296 1168.91 525.178V504.882C1168.91 501.766 1168.27 499.448 1166.99 498.01C1165.71 496.572 1163.71 495.853 1161 495.853C1157.8 495.853 1155.24 496.811 1153.33 498.809C1151.41 500.807 1150.45 503.444 1150.45 506.799V525.178C1150.45 526.296 1150.05 527.255 1149.33 527.894C1148.69 528.613 1147.73 528.933 1146.53 528.933C1145.34 528.933 1144.38 528.613 1143.58 527.894C1142.86 527.255 1142.54 526.296 1142.54 525.178V476.755C1142.54 475.557 1142.86 474.678 1143.66 474.039C1144.38 473.319 1145.42 473 1146.61 473C1147.73 473 1148.69 473.319 1149.33 473.959C1150.05 474.598 1150.45 475.477 1150.45 476.596V496.172C1151.73 493.935 1153.49 492.257 1155.64 491.138C1157.88 490.02 1160.36 489.38 1163.15 489.38ZM1203.66 489.38C1208.7 489.38 1212.45 490.659 1214.93 493.216C1217.4 495.773 1218.68 499.688 1218.68 504.882V525.178C1218.68 526.376 1218.28 527.335 1217.64 527.974C1217 528.613 1216.05 528.933 1214.85 528.933C1213.65 528.933 1212.77 528.613 1212.05 527.894C1211.41 527.255 1211.09 526.296 1211.09 525.178V522.301C1210.05 524.458 1208.62 526.136 1206.62 527.335C1204.7 528.534 1202.38 529.093 1199.83 529.093C1197.27 529.093 1195.03 528.613 1192.88 527.575C1190.8 526.536 1189.2 525.098 1188 523.34C1186.88 521.502 1186.24 519.424 1186.24 517.187C1186.24 514.47 1186.96 512.233 1188.4 510.635C1189.84 509.037 1192.24 507.918 1195.51 507.279C1198.87 506.56 1203.42 506.24 1209.17 506.24H1211.01V504.003C1211.01 501.046 1210.37 498.969 1209.17 497.61C1207.98 496.332 1206.06 495.693 1203.42 495.693C1201.58 495.693 1199.83 495.932 1198.23 496.412C1196.63 496.891 1194.87 497.531 1192.88 498.41C1191.52 499.209 1190.48 499.608 1189.92 499.608C1189.12 499.608 1188.48 499.288 1188 498.729C1187.52 498.17 1187.28 497.451 1187.28 496.572C1187.28 495.773 1187.52 495.054 1187.92 494.494C1188.4 493.855 1189.12 493.296 1190.08 492.736C1191.92 491.698 1194.07 490.898 1196.55 490.339C1198.95 489.7 1201.34 489.38 1203.66 489.38ZM1201.18 523.26C1204.06 523.26 1206.46 522.221 1208.22 520.303C1210.05 518.306 1211.01 515.829 1211.01 512.712V510.715H1209.57C1205.5 510.715 1202.38 510.875 1200.23 511.274C1197.99 511.594 1196.47 512.233 1195.51 513.112C1194.55 513.991 1194.07 515.189 1194.07 516.788C1194.07 518.705 1194.79 520.223 1196.15 521.422C1197.51 522.621 1199.19 523.26 1201.18 523.26ZM1250.08 489.38C1259.19 489.38 1263.75 494.574 1263.75 504.802V525.178C1263.75 526.376 1263.43 527.335 1262.71 527.974C1261.99 528.613 1261.03 528.933 1259.75 528.933C1258.55 528.933 1257.59 528.613 1256.87 527.894C1256.16 527.255 1255.84 526.296 1255.84 525.178V505.201C1255.84 502.005 1255.2 499.608 1253.92 498.09C1252.64 496.572 1250.64 495.853 1247.93 495.853C1244.73 495.853 1242.17 496.811 1240.26 498.809C1238.34 500.807 1237.38 503.444 1237.38 506.799V525.178C1237.38 526.296 1236.98 527.255 1236.34 527.894C1235.62 528.613 1234.66 528.933 1233.46 528.933C1232.27 528.933 1231.31 528.613 1230.59 527.894C1229.79 527.255 1229.47 526.296 1229.47 525.178V493.296C1229.47 492.257 1229.87 491.298 1230.59 490.659C1231.39 489.94 1232.35 489.54 1233.46 489.54C1234.58 489.54 1235.54 489.94 1236.18 490.579C1236.9 491.298 1237.22 492.177 1237.22 493.216V496.492C1238.5 494.175 1240.18 492.417 1242.49 491.218C1244.73 490.02 1247.21 489.38 1250.08 489.38ZM1308.49 529.093C1303.22 529.093 1298.82 527.974 1295.47 525.817C1294.51 525.257 1293.87 524.618 1293.47 523.979C1293.07 523.42 1292.83 522.701 1292.83 521.901C1292.83 521.023 1293.07 520.383 1293.55 519.744C1294.03 519.185 1294.67 518.945 1295.39 518.945C1296.02 518.945 1297.14 519.345 1298.58 520.144C1300.1 521.023 1301.7 521.662 1303.14 522.221C1304.65 522.701 1306.49 523.02 1308.73 523.02C1311.29 523.02 1313.2 522.541 1314.64 521.662C1316 520.783 1316.72 519.504 1316.72 517.906C1316.72 516.867 1316.48 515.989 1315.92 515.429C1315.36 514.79 1314.4 514.231 1313.04 513.751C1311.69 513.192 1309.69 512.712 1307.05 512.153C1302.42 511.114 1299.14 509.756 1297.14 508.078C1295.15 506.4 1294.11 504.083 1294.11 501.126C1294.11 498.889 1294.75 496.891 1296.02 495.054C1297.38 493.296 1299.14 491.857 1301.46 490.898C1303.78 489.94 1306.33 489.38 1309.29 489.38C1311.37 489.38 1313.44 489.7 1315.36 490.259C1317.36 490.819 1319.12 491.618 1320.63 492.656C1322.39 493.775 1323.19 495.133 1323.19 496.652C1323.19 497.451 1322.95 498.17 1322.47 498.729C1321.99 499.288 1321.43 499.608 1320.71 499.608C1320.23 499.608 1319.75 499.448 1319.28 499.288C1318.88 499.049 1318.24 498.729 1317.44 498.25C1316 497.451 1314.72 496.811 1313.44 496.332C1312.24 495.853 1310.73 495.613 1308.89 495.613C1306.73 495.613 1304.97 496.092 1303.62 496.971C1302.26 497.93 1301.62 499.209 1301.62 500.807C1301.62 502.325 1302.26 503.444 1303.46 504.243C1304.65 505.042 1306.97 505.841 1310.41 506.56C1313.84 507.279 1316.64 508.158 1318.64 509.037C1320.55 509.996 1321.99 511.194 1322.87 512.553C1323.75 513.911 1324.15 515.669 1324.15 517.826C1324.15 521.182 1322.71 523.979 1319.91 525.977C1317.04 528.054 1313.28 529.093 1308.49 529.093ZM1351.24 522.94C1352.35 523.02 1353.23 523.34 1353.71 523.819C1354.19 524.299 1354.43 525.018 1354.43 525.897C1354.43 526.935 1354.03 527.735 1353.23 528.294C1352.43 528.853 1351.24 529.013 1349.64 528.933L1347.56 528.773C1343.33 528.454 1340.21 527.175 1338.05 524.938C1335.97 522.621 1334.94 519.265 1334.94 514.87V496.492H1330.3C1327.98 496.492 1326.79 495.453 1326.79 493.376C1326.79 492.497 1327.11 491.698 1327.74 491.138C1328.3 490.659 1329.18 490.339 1330.3 490.339H1334.94V482.269C1334.94 481.07 1335.34 480.191 1336.05 479.472C1336.69 478.833 1337.65 478.433 1338.85 478.433C1340.05 478.433 1341.01 478.833 1341.81 479.472C1342.53 480.191 1342.85 481.07 1342.85 482.269V490.339H1350.6C1351.71 490.339 1352.59 490.659 1353.15 491.138C1353.79 491.698 1354.03 492.497 1354.03 493.376C1354.03 494.414 1353.79 495.133 1353.15 495.693C1352.59 496.172 1351.71 496.492 1350.6 496.492H1342.85V515.429C1342.85 517.826 1343.41 519.664 1344.36 520.783C1345.4 521.981 1346.92 522.621 1349.08 522.78L1351.24 522.94ZM1389.75 489.54C1390.94 489.54 1391.9 489.94 1392.62 490.579C1393.26 491.298 1393.66 492.177 1393.66 493.376V525.257C1393.66 526.376 1393.26 527.255 1392.54 527.894C1391.82 528.613 1390.87 528.933 1389.67 528.933C1388.55 528.933 1387.67 528.613 1387.03 527.974C1386.31 527.335 1385.99 526.456 1385.99 525.337V522.381C1384.79 524.538 1383.11 526.216 1381.04 527.415C1378.88 528.534 1376.56 529.093 1373.93 529.093C1364.66 529.093 1360.02 523.979 1360.02 513.751V493.376C1360.02 492.177 1360.34 491.298 1361.06 490.579C1361.78 489.94 1362.74 489.54 1364.02 489.54C1365.22 489.54 1366.18 489.94 1366.82 490.579C1367.53 491.298 1367.93 492.177 1367.93 493.376V513.671C1367.93 516.788 1368.49 519.025 1369.77 520.463C1371.05 521.981 1372.97 522.701 1375.6 522.701C1378.64 522.701 1381.12 521.662 1382.96 519.744C1384.79 517.746 1385.75 515.11 1385.75 511.833V493.376C1385.75 492.257 1386.15 491.298 1386.87 490.659C1387.59 489.94 1388.55 489.54 1389.75 489.54Z" fill="#808080"/>
<path fill-rule="evenodd" clip-rule="evenodd" d="M1425.3 489.38C1434.41 489.38 1438.96 494.574 1438.96 504.802V525.178C1438.96 526.376 1438.64 527.335 1437.92 527.974C1437.21 528.613 1436.25 528.933 1434.97 528.933C1433.77 528.933 1432.81 528.613 1432.09 527.894C1431.37 527.255 1431.05 526.296 1431.05 525.178V505.201C1431.05 502.005 1430.41 499.608 1429.14 498.09C1427.86 496.572 1425.86 495.853 1423.14 495.853C1419.95 495.853 1417.39 496.811 1415.47 498.809C1413.56 500.807 1412.6 503.444 1412.6 506.799V525.178C1412.6 526.296 1412.28 527.255 1411.56 527.894C1410.84 528.613 1409.88 528.933 1408.68 528.933C1407.48 528.933 1406.52 528.613 1405.81 527.894C1405.09 527.255 1404.69 526.296 1404.69 525.178V493.296C1404.69 492.257 1405.09 491.298 1405.81 490.659C1406.6 489.94 1407.56 489.54 1408.68 489.54C1409.8 489.54 1410.76 489.94 1411.4 490.579C1412.12 491.298 1412.44 492.177 1412.44 493.216V496.492C1413.72 494.175 1415.47 492.417 1417.71 491.218C1419.95 490.02 1422.42 489.38 1425.3 489.38ZM1468.45 522.94C1469.64 523.02 1470.44 523.34 1470.92 523.819C1471.4 524.299 1471.64 525.018 1471.64 525.897C1471.64 526.935 1471.24 527.735 1470.44 528.294C1469.64 528.853 1468.45 529.013 1466.93 528.933L1464.77 528.773C1460.54 528.454 1457.42 527.175 1455.34 524.938C1453.27 522.621 1452.23 519.265 1452.23 514.87V496.492H1447.51C1445.2 496.492 1444.08 495.453 1444.08 493.376C1444.08 492.497 1444.32 491.698 1444.96 491.138C1445.51 490.659 1446.39 490.339 1447.51 490.339H1452.23V482.269C1452.23 481.07 1452.55 480.191 1453.27 479.472C1453.98 478.833 1454.94 478.433 1456.14 478.433C1457.34 478.433 1458.3 478.833 1459.02 479.472C1459.74 480.191 1460.06 481.07 1460.06 482.269V490.339H1467.81C1468.93 490.339 1469.8 490.659 1470.36 491.138C1471 491.698 1471.32 492.497 1471.32 493.376C1471.32 494.414 1471 495.133 1470.36 495.693C1469.8 496.172 1468.93 496.492 1467.81 496.492H1460.06V515.429C1460.06 517.826 1460.62 519.664 1461.65 520.783C1462.61 521.981 1464.21 522.621 1466.29 522.78L1468.45 522.94ZM1481.39 528.933C1480.27 528.933 1479.31 528.613 1478.51 527.974C1477.79 527.415 1477.39 526.456 1477.39 525.178V493.376C1477.39 492.177 1477.79 491.218 1478.51 490.579C1479.31 489.94 1480.27 489.54 1481.39 489.54C1482.51 489.54 1483.47 489.94 1484.19 490.579C1484.91 491.218 1485.3 492.177 1485.3 493.376V525.178C1485.3 526.456 1484.91 527.415 1484.19 527.974C1483.47 528.613 1482.51 528.933 1481.39 528.933ZM1481.39 481.869C1479.87 481.869 1478.67 481.47 1477.79 480.671C1476.92 479.792 1476.44 478.753 1476.44 477.395C1476.44 476.036 1476.92 474.918 1477.79 474.118C1478.67 473.319 1479.87 472.92 1481.39 472.92C1482.83 472.92 1484.03 473.319 1484.91 474.118C1485.86 474.918 1486.34 476.036 1486.34 477.395C1486.34 478.753 1485.86 479.792 1484.99 480.671C1484.11 481.47 1482.91 481.869 1481.39 481.869ZM1516.94 489.38C1526.05 489.38 1530.61 494.574 1530.61 504.802V525.178C1530.61 526.376 1530.29 527.335 1529.57 527.974C1528.85 528.613 1527.89 528.933 1526.61 528.933C1525.41 528.933 1524.46 528.613 1523.74 527.894C1523.02 527.255 1522.7 526.296 1522.7 525.178V505.201C1522.7 502.005 1522.06 499.608 1520.78 498.09C1519.5 496.572 1517.5 495.853 1514.79 495.853C1511.59 495.853 1509.03 496.811 1507.12 498.809C1505.2 500.807 1504.24 503.444 1504.24 506.799V525.178C1504.24 526.296 1503.92 527.255 1503.2 527.894C1502.48 528.613 1501.52 528.933 1500.33 528.933C1499.13 528.933 1498.17 528.613 1497.45 527.894C1496.73 527.255 1496.33 526.296 1496.33 525.178V493.296C1496.33 492.257 1496.73 491.298 1497.45 490.659C1498.25 489.94 1499.21 489.54 1500.33 489.54C1501.44 489.54 1502.4 489.94 1503.04 490.579C1503.76 491.298 1504.08 492.177 1504.08 493.216V496.492C1505.36 494.175 1507.12 492.417 1509.35 491.218C1511.59 490.02 1514.07 489.38 1516.94 489.38ZM1573.03 489.54C1574.23 489.54 1575.19 489.94 1575.91 490.659C1576.55 491.298 1576.95 492.257 1576.95 493.376V525.497C1576.95 531.33 1575.35 535.725 1572.31 538.761C1569.2 541.718 1564.56 543.156 1558.57 543.156C1552.9 543.156 1548.19 542.117 1544.43 539.96C1542.51 538.841 1541.55 537.563 1541.55 536.045C1541.55 535.166 1541.79 534.447 1542.27 533.887C1542.83 533.328 1543.39 533.008 1544.11 533.008C1544.83 533.008 1545.87 533.408 1547.39 534.207C1549.22 535.086 1550.98 535.725 1552.58 536.284C1554.26 536.764 1556.18 537.003 1558.41 537.003C1565.6 537.003 1569.2 533.408 1569.2 526.136V520.064C1568.08 522.381 1566.4 524.219 1564.17 525.497C1561.93 526.776 1559.37 527.415 1556.33 527.415C1552.98 527.415 1550.02 526.616 1547.47 525.018C1544.83 523.5 1542.83 521.262 1541.39 518.386C1539.96 515.509 1539.24 512.153 1539.24 508.398C1539.24 504.642 1539.96 501.366 1541.39 498.489C1542.83 495.613 1544.91 493.376 1547.47 491.777C1550.02 490.179 1552.98 489.38 1556.33 489.38C1559.29 489.38 1561.85 490.02 1564.09 491.298C1566.32 492.576 1568 494.334 1569.12 496.652V493.296C1569.12 492.177 1569.44 491.298 1570.16 490.579C1570.88 489.94 1571.84 489.54 1573.03 489.54ZM1558.25 521.102C1561.61 521.102 1564.32 519.984 1566.24 517.746C1568.16 515.509 1569.12 512.393 1569.12 508.398C1569.12 504.482 1568.16 501.446 1566.24 499.129C1564.32 496.891 1561.69 495.773 1558.25 495.773C1554.82 495.773 1552.1 496.891 1550.1 499.129C1548.19 501.366 1547.23 504.482 1547.23 508.398C1547.23 512.393 1548.19 515.509 1550.18 517.746C1552.18 519.984 1554.82 521.102 1558.25 521.102Z" fill="#808080"/>
</svg>
